<?xml version="1.0" encoding="utf-8"?>
<!-- Generator: Adobe Illustrator 27.5.0, SVG Export Plug-In . SVG Version: 6.00 Build 0)  -->
<svg version="1.1" id="Laag_1" xmlns="http://www.w3.org/2000/svg" xmlns:xlink="http://www.w3.org/1999/xlink" x="0px" y="0px"
	 viewBox="0 0 300 300" style="enable-background:new 0 0 300 300;" xml:space="preserve">
<style type="text/css">
	.st0{fill:none;stroke:#FFFFFF;stroke-width:3;stroke-miterlimit:10;}
	.st1{fill:none;stroke:#FFFFFF;stroke-miterlimit:10;}
	.st2{fill:none;stroke:#FFFFFF;stroke-width:3;stroke-linecap:round;stroke-miterlimit:10;}
</style>
<g>
	<g>
		<path class="st0" d="M50.8,180.39c0,0-5.49-22.56-1.04-31.46c4.45-8.9,5.64-17.81,19.29-29.38s40.66-35.47,32.35-42.89
			s-23.89-2.37-29.23,1.63c-5.34,4.01-21.52,18.4-27.45,36.51s-9.2,45.11-22.56,51.2C22.15,165.99,43.38,162.65,50.8,180.39z"/>
		<path class="st1" d="M79.35,86.53c0,0-1.15,4.08,0.92,6.45c2.08,2.37,6.23,2.08,6.23,2.08"/>
		<path class="st1" d="M75.73,84.45c0,0-3.58,7,0.56,11.76c6.98,8.04,15.96,0.92,15.96,0.92"/>
		<path class="st1" d="M67.99,90.43c0,0-18.54,21.98-20.05,33.99"/>
		<path class="st1" d="M69.2,95.41c0,0-16.63,20.25-17.85,31.22"/>
		<path class="st1" d="M71.88,99.22c0,0-15.36,18.71-16.5,28.85"/>
		<path class="st0" d="M63.43,86.08c0,0-23.96,6.63-24.26,8.99c-0.3,2.36,8.31,8.01,10.71,8.4"/>
		<path class="st0" d="M80.3,109.67c0,0-1.95,11.8-3.29,12.09c-1.34,0.3-4.91-3.3-6.78-3.23"/>
		<path class="st0" d="M37.17,141.89c0,0-7.04,5.55-7.56,7.04c-0.52,1.48,2.31,2.68,4.18,2.51"/>
		<path class="st0" d="M52.05,143.82c0,0,1.52,10.48,1.82,12.23c0.3,1.74-5.57,0.27-5.73-0.25"/>
		<path class="st1" d="M41.9,98.75c0,0,9.83-7.83,17.21-8.03"/>
		<path class="st1" d="M45.53,101.37c0,0,6.74-6.26,10.76-7.24"/>
		<path class="st1" d="M74.76,120.85c0,0,2.84-6.26,2.16-8.13c-0.67-1.86-3.98,6.95-3.98,6.95"/>
		<path class="st1" d="M42.78,157.29c0,0-0.89,11.63,0,13.09"/>
		<line class="st1" x1="36.11" y1="167.57" x2="38.63" y2="158.37"/>
		<path class="st1" d="M29.55,165.9c0,0,4.72-5.45,5.81-7.52c1.09-2.08,1.09-2.08,1.09-2.08"/>
	</g>
	<g>
		<path class="st2" d="M231.32,50.42c0.01,0.08,0.03,0.17,0.04,0.25c-0.72-0.78-1.5-1.48-2.34-2.1
			c-36.36-26.9-47.04-25.04-56.15-25.24c-9.11-0.2-15.52,6.43-6.92,15.63c8.61,9.2,8.9,14.25,6.53,14.25
			c-2.37,0-26.12-1.48-33.83,1.78c-7.72,3.26-3.17,9.94-0.3,10.68c3.41,0.89,14.84,7.42,15.73,10.98c0.89,3.56-7.64,0.82-11.13,4.9
			c-2.51,2.94-4.6,7.57,18,15.29c22.6,7.72,45.37,26.12,45.96,69.45c0.59,43.33-22.85,62.92-75.98,74.2
			c-53.13,11.28-94.82-33.54-94.82-33.54s0,0,0,0c21.09,41.47,64.34,69.73,114.06,69.73c70.51,0,127.68-57.16,127.68-127.68
			C277.85,109.3,259.73,73.84,231.32,50.42z"/>
		<path class="st0" d="M277.85,147.79c0,0-2.57-11.87-4.95-12.27c-2.37-0.4-4.35,4.55-7.32,9.5c-2.97,4.95-11.87,10.49-11.67,0.79
			c0.2-9.7,8.71-18.01,2.18-36.41c-6.53-18.4-14.44-28.89-24.14-29.68s-11.08,3.76-9.89,11.08c1.19,7.32,0,16.22-9.7,6.33
			s-24.54-23.74-35.42-19.79c-10.88,3.96-11.48,10.09-7.72,15.24c3.76,5.14,21.37,10.88,27.5,16.42c6.13,5.54,6.65,31.57,6.65,31.57
			"/>
		<path class="st0" d="M144.29,37.08c0,0-18.5-14.84-31.26-5.74s-1.04,13.8,4.55,13.36C128.22,43.85,134.49,37.38,144.29,37.08z"/>
		<path class="st0" d="M128.56,64.09c0,0-2.17-2.47-5.94-4.16c-2.98-1.34-12.76-1.39-12.96,2.77c-0.2,4.16,1.98,6.63,6.73,5.34
			C121.14,66.76,122.82,63.7,128.56,64.09z"/>
		<path class="st0" d="M213.77,259.73c0,0,7.89-6.28,6.11-10.83c-1.78-4.55,1.98-7.72,5.14-8.71c3.17-0.99,23.35-12.07,28.69-37.2
			s-6.39-1.58-17.15,1.19c-10.75,2.77-1.57-15.43,0.67-21.96c2.23-6.53,2.63-22.56-8.45-23.94s-6.53,13.26-6.33,17.41
			c0.2,4.16-8.31,25.13-13.06,27.7s-11.51,0.51-6.65-8.75"/>
	</g>
</g>
</svg>
