<?xml version="1.0" encoding="utf-8"?>
<!-- Generator: Adobe Illustrator 27.5.0, SVG Export Plug-In . SVG Version: 6.00 Build 0)  -->
<svg version="1.1" id="Laag_1" xmlns="http://www.w3.org/2000/svg" xmlns:xlink="http://www.w3.org/1999/xlink" x="0px" y="0px"
	 viewBox="0 0 300 300" style="enable-background:new 0 0 300 300;" xml:space="preserve">
<style type="text/css">
	.st0{fill:#5FC2D0;}
	.st1{fill:none;stroke:#FFFFFF;stroke-width:3;stroke-miterlimit:10;}
	.st2{fill:none;stroke:#FFFFFF;stroke-miterlimit:10;}
	.st3{fill:none;stroke:#FFFFFF;stroke-width:3;stroke-linecap:round;stroke-miterlimit:10;}
</style>
<g>
	<g>
		<circle class="st0" cx="149.99" cy="150.18" r="149.16"/>
		<g>
			<g>
				<path class="st1" d="M51.27,180.42c0,0-5.46-22.45-1.03-31.31s5.61-17.72,19.2-29.24s40.46-35.3,32.19-42.68
					s-23.78-2.36-29.09,1.62c-5.32,3.99-21.41,18.31-27.32,36.33s-9.16,44.89-22.45,50.95C22.76,166.1,43.88,162.78,51.27,180.42z"
					/>
				<path class="st2" d="M79.69,87.02c0,0-1.15,4.06,0.92,6.42c2.07,2.36,6.2,2.07,6.2,2.07"/>
				<path class="st2" d="M76.08,84.96c0,0-3.56,6.96,0.56,11.71c6.94,8,15.88,0.91,15.88,0.91"/>
				<path class="st2" d="M68.38,90.9c0,0-18.45,21.87-19.96,33.82"/>
				<path class="st2" d="M69.58,95.85c0,0-16.54,20.15-17.77,31.06"/>
				<path class="st2" d="M72.25,99.65c0,0-15.29,18.62-16.42,28.71"/>
				<path class="st1" d="M63.84,86.57c0,0-23.85,6.6-24.14,8.95c-0.3,2.35,8.27,7.98,10.66,8.36"/>
				<path class="st1" d="M80.63,110.05c0,0-1.94,11.74-3.27,12.04c-1.33,0.3-4.88-3.28-6.75-3.21"/>
				<path class="st1" d="M37.71,142.11c0,0-7,5.53-7.52,7s2.3,2.67,4.16,2.5"/>
				<path class="st1" d="M52.52,144.03c0,0,1.52,10.43,1.81,12.17c0.3,1.74-5.54,0.27-5.71-0.25"/>
				<path class="st2" d="M42.42,99.19c0,0,9.78-7.79,17.13-7.99"/>
				<path class="st2" d="M46.03,101.79c0,0,6.7-6.23,10.71-7.21"/>
				<path class="st2" d="M75.11,121.17c0,0,2.82-6.23,2.15-8.09c-0.67-1.85-3.96,6.91-3.96,6.91"/>
				<path class="st2" d="M43.29,157.43c0,0-0.89,11.57,0,13.02"/>
				<line class="st2" x1="36.65" y1="167.67" x2="39.16" y2="158.52"/>
				<path class="st2" d="M30.12,166c0,0,4.7-5.42,5.78-7.49c1.08-2.07,1.08-2.07,1.08-2.07"/>
			</g>
			<g>
				<path class="st3" d="M230.92,51.09c0.01,0.08,0.03,0.17,0.04,0.25c-0.72-0.77-1.49-1.47-2.33-2.09
					c-36.18-26.77-46.81-24.92-55.88-25.12c-9.07-0.2-15.45,6.4-6.88,15.55c8.57,9.16,8.86,14.18,6.5,14.18
					c-2.36,0-25.99-1.48-33.67,1.77c-7.68,3.25-3.15,9.89-0.3,10.63c3.4,0.89,14.77,7.38,15.65,10.93
					c0.89,3.54-7.61,0.81-11.08,4.87c-2.5,2.93-4.58,7.53,17.91,15.21c22.49,7.68,45.15,25.99,45.74,69.11
					c0.59,43.12-22.74,62.62-75.61,73.84c-52.87,11.22-94.36-33.38-94.36-33.38s0,0,0,0c20.99,41.27,64.03,69.39,113.5,69.39
					c70.17,0,127.06-56.89,127.06-127.06C277.22,109.69,259.19,74.4,230.92,51.09z"/>
				<path class="st1" d="M277.22,147.98c0,0-2.56-11.81-4.92-12.21c-2.36-0.39-4.33,4.53-7.29,9.45s-11.81,10.44-11.62,0.79
					c0.2-9.65,8.66-17.92,2.17-36.23c-6.5-18.31-14.37-28.75-24.02-29.54s-11.03,3.74-9.85,11.03c1.18,7.29,0,16.15-9.65,6.3
					s-24.42-23.63-35.25-19.69c-10.83,3.94-11.42,10.04-7.68,15.16c3.74,5.12,21.27,10.83,27.37,16.34
					c6.1,5.51,6.61,31.41,6.61,31.41"/>
				<path class="st1" d="M144.3,37.81c0,0-18.41-14.77-31.11-5.71s-1.03,13.73,4.53,13.29C128.32,44.55,134.56,38.11,144.3,37.81z"
					/>
				<path class="st1" d="M128.65,64.69c0,0-2.16-2.45-5.91-4.14c-2.96-1.33-12.7-1.38-12.9,2.76c-0.2,4.14,1.97,6.6,6.69,5.32
					C121.27,67.35,122.94,64.3,128.65,64.69z"/>
				<path class="st1" d="M213.45,259.38c0,0,7.85-6.25,6.08-10.78c-1.77-4.53,1.97-7.68,5.12-8.66s23.23-12.01,28.55-37.02
					c5.32-25.01-6.36-1.58-17.06,1.18c-10.7,2.76-1.56-15.36,0.66-21.86c2.22-6.5,2.62-22.45-8.41-23.83
					c-11.03-1.38-6.5,13.19-6.3,17.33c0.2,4.14-8.27,25.01-13,27.57c-4.73,2.56-11.46,0.5-6.61-8.71"/>
			</g>
		</g>
	</g>
</g>
</svg>
